<?xml version="1.0" encoding="utf-8"?>
<!-- Generator: Adobe Illustrator 19.2.1, SVG Export Plug-In . SVG Version: 6.00 Build 0)  -->
<svg version="1.1" id="Layer_1" xmlns="http://www.w3.org/2000/svg" xmlns:xlink="http://www.w3.org/1999/xlink" x="0px" y="0px"
	 viewBox="0 0 20 15.6" enable-background="new 0 0 20 15.6" xml:space="preserve">
<path id="_TWITTER" fill="#543F3F" d="M20,1.8L20,1.8 M13.8,0c-2.2,0-4.1,1.7-4.1,3.9c0,0.3,0,0.6,0.1,0.9C6.6,4.7,3.5,3.2,1.4,0.7
	C0.3,2.5,0.9,4.9,2.7,6C2,6,1.4,5.8,0.8,5.5v0.1c0,1.9,1.4,3.5,3.3,3.9C3.7,9.5,3.4,9.6,3,9.5c-0.3,0-0.5,0-0.8-0.1
	c0.6,1.6,2.1,2.7,3.8,2.8c-1.5,1.1-3.3,1.7-5.1,1.7c-0.3,0-0.7,0-1-0.1c1.9,1.2,4.1,1.8,6.3,1.8c6.3,0.2,11.5-4.8,11.7-11.1
	c0-0.1,0-0.1,0-0.2c0-0.2,0-0.3,0-0.5c0.8-0.6,1.5-1.2,2.1-2.1c-0.8,0.3-1.5,0.5-2.4,0.6c0.8-0.5,1.5-1.3,1.8-2.2
	c-0.8,0.5-1.7,0.8-2.6,1C16.1,0.4,15,0,13.8,0"/>
</svg>
